# xmcd
#
# Track frame offsets: 
#        150
#        8573
#        38515
#        46439
#        61089
#        101135
#        109345
#        148965
#        178544
#        202908
#        210960
#        242159
#
# Disc length: 3355 seconds
#
# Revision: 1
# Processed by: cddbd v1.5.2PL0 Copyright (c) Steve Scherf et al.
# Submitted via: ExactAudioCopy v0.99pb4
#
DISCID=9e0d190c
DTITLE=Kelly Rossum - Line
DYEAR=2006
DGENRE=612 Sides
TTITLE0=Line I
TTITLE1=La Vita a Roma
TTITLE2=Line II
TTITLE3=Sitting on the Dock Looking at Stars
TTITLE4=Sand Dunes
TTITLE5=Line III
TTITLE6=Seduction
TTITLE7=Line
TTITLE8=Soft
TTITLE9=Line IV
TTITLE10=Places of the Mindful
TTITLE11=Line V
EXTD=YEAR: 2006
EXTT0=
EXTT1=
EXTT2=
EXTT3=
EXTT4=
EXTT5=
EXTT6=
EXTT7=
EXTT8=
EXTT9=
EXTT10=
EXTT11=
PLAYORDER=
